<svg id="Flat" height="512" viewBox="0 0 512 512" width="512" xmlns="http://www.w3.org/2000/svg"><circle cx="256" cy="256" fill="#ccdce5" r="232"/><path d="m424 200a120 120 0 1 0 -223.942 60 120 120 0 1 0 207.884 0 119.442 119.442 0 0 0 16.058-60z" fill="#ffd91c"/><path d="m291.59 272.206a31.848 31.848 0 0 0 4.41-16.206c0-.336-.015-.669-.025-1a32.01 32.01 0 0 0 0-62c.01-.333.025-.666.025-1a31.849 31.849 0 0 0 -3.82-15.17 32 32 0 0 0 -6.2-53.621 32.007 32.007 0 0 0 -24.241-42.686 32 32 0 0 0 -50.527 9.5 32.01 32.01 0 0 0 -39.054 14.215 31.988 31.988 0 0 0 -26.94 40.49 32.043 32.043 0 0 0 -24.218 23.297c-.333-.01-.666-.025-1-.025a31.951 31.951 0 0 0 -31.725 36.134 32 32 0 0 0 -10.867 45.666 32 32 0 0 0 -5.133 58.063 31.951 31.951 0 0 0 31.725 36.137c.336 0 .669-.015 1-.025a32.043 32.043 0 0 0 24.213 23.3 31.961 31.961 0 0 0 34.919 40.453 31.913 31.913 0 0 0 32 16 32 32 0 0 0 58.868-7.753c.333.01.666.025 1 .025a31.993 31.993 0 0 0 21.155-56 31.916 31.916 0 0 0 10.845-24 32 32 0 0 0 3.59-63.794z" fill="#704a22"/><g fill="#a3783b"><path d="m160 256h-16a24.027 24.027 0 0 0 -24-24v-16a40.045 40.045 0 0 1 40 40z"/><path d="m183.838 183.845-3.137-15.69a24.026 24.026 0 0 0 18.827-28.24l15.689-3.139a40.046 40.046 0 0 1 -31.379 47.069z"/><path d="m256 176h16v16h-16z"/><path d="m144 304h16v16h-16z"/><path d="m240 328h16v16h-16z"/><path d="m240 112h16v16h-16z"/><path d="m200.948 393.569-15.69-3.138a24.026 24.026 0 0 0 -18.827-28.241l3.138-15.689a40.045 40.045 0 0 1 31.379 47.068z"/></g><path d="m183.8 228h80.399v15.999h-80.399z" fill="#88bf40" transform="matrix(.995 -.099 .099 .995 -22.369 23.457)"/><path d="m191.8 252h80.399v15.999h-80.399z" fill="#88bf40" transform="matrix(.995 -.099 .099 .995 -24.717 24.372)"/><path d="m232 207.122h16v73.756h-16z" fill="#88bf40" transform="matrix(.976 -.217 .217 .976 -47.216 57.874)"/><path d="m339.2 280.675-6.4-14.662a72.018 72.018 0 0 0 -21.588-137.658l1.582-15.921a88.019 88.019 0 0 1 26.406 168.241z" fill="#fdbe10"/><path d="m345.739 237.335-11.922-10.67a40.01 40.01 0 0 0 -9.823-61.318l8.012-13.85a56.01 56.01 0 0 1 13.733 85.838z" fill="#fdbe10"/><path d="m346.858 312.117-5.716-14.943a104.019 104.019 0 0 0 -37.142-201.174v-16a120.02 120.02 0 0 1 42.858 232.117z" fill="#fdbe10"/><path d="m304 408v-16a72.074 72.074 0 0 0 70.56-86.409l15.68-3.182a88.072 88.072 0 0 1 -86.24 105.591z" fill="#fdbe10"/><path d="m304 376v-16a40.045 40.045 0 0 0 40-40h16a56.063 56.063 0 0 1 -56 56z" fill="#fdbe10"/><path d="m304 440a120.773 120.773 0 0 1 -25.706-2.761l3.412-15.633a104.1 104.1 0 0 0 126.294-101.606 103.591 103.591 0 0 0 -6.826-37.143l14.944-5.714a120.071 120.071 0 0 1 -112.118 162.857z" fill="#fdbe10"/></svg>