<svg height="512pt" viewBox="1 0 511 512" width="512pt" xmlns="http://www.w3.org/2000/svg"><path d="m106.671875 61.238281h60.5v30h-60.5zm0 0" fill="#ff633d"/><path d="m256.171875 61.238281h256.328125v30h-256.328125zm0 0" fill="#e70021"/><path d="m106.671875 0h405.828125v30h-405.828125zm0 0" fill="#ff633d"/><path d="m211.671875 0h300.828125v30h-300.828125zm0 0" fill="#e70021"/><g fill="#ffb74d"><path d="m137.171875 0h30v270.148438h-30zm0 0"/><path d="m196.671875 0h30v270.148438h-30zm0 0"/><path d="m256.171875 0h30v270.148438h-30zm0 0"/></g><path d="m211.671875 0h15v270.148438h-15zm0 0" fill="#ff9a00"/><path d="m256.171875 0h30v270.148438h-30zm0 0" fill="#ff9a00"/><path d="m419.058594 245.519531v15c0 16.589844-1.957032 33.019531-5.789063 48.949219-2.441406 10.230469-5.660156 20.261719-9.628906 30-4.511719 11.082031-9.980469 21.792969-16.390625 32.011719-18.578125 29.648437-44.25 54.128906-74.589844 71.28125v69.238281h-205.761718v-69.238281c-30.339844-17.152344-56.007813-41.632813-74.589844-71.28125-6.410156-10.21875-11.878906-20.929688-16.386719-32.011719-3.972656-9.738281-7.191406-19.769531-9.632813-30-3.828124-15.929688-5.789062-32.359375-5.789062-48.949219v-15zm0 0" fill="#6ecd24"/><path d="m419.058594 245.519531v15c0 16.589844-1.957032 33.019531-5.789063 48.949219-2.441406 10.230469-5.660156 20.261719-9.628906 30-4.511719 11.082031-9.980469 21.792969-16.390625 32.011719-18.578125 29.648437-44.25 54.128906-74.589844 71.28125v69.238281h-100.988281v-266.480469zm0 0" fill="#66bd21"/><path d="m413.269531 309.46875c-2.441406 10.230469-5.660156 20.261719-9.628906 30h-387.71875c-3.972656-9.738281-7.191406-19.769531-9.632813-30zm0 0" fill="#d5f3cb"/><path d="m211.671875 309.46875h201.597656c-2.441406 10.230469-5.660156 20.261719-9.628906 30h-191.96875zm0 0" fill="#b6efab"/></svg>